<svg width="1517" height="1244" viewBox="0 0 1517 1244" fill="none" xmlns="http://www.w3.org/2000/svg">
<rect width="62.4488" height="257" transform="matrix(-1 0 0 1 1228.76 886)" fill="url(#paint0_linear_30_516)"/>
<rect width="62.4488" height="257" transform="matrix(-1 0 0 1 1185.53 987)" fill="url(#paint1_linear_30_516)"/>
<rect width="62.4488" height="257" transform="matrix(-1 0 0 1 1310.43 858)" fill="url(#paint2_linear_30_516)"/>
<rect width="62.4488" height="257" transform="matrix(-1 0 0 1 1389.21 881)" fill="url(#paint3_linear_30_516)"/>
<rect width="62.4488" height="257" transform="matrix(-1 0 0 1 1351.74 821)" fill="url(#paint4_linear_30_516)"/>
<rect width="62.4488" height="257" transform="matrix(-1 0 0 1 1512.18 757)" fill="url(#paint5_linear_30_516)"/>
<rect width="62.4488" height="257" transform="matrix(-1 0 0 1 1474.71 858)" fill="url(#paint6_linear_30_516)"/>
<rect width="62.4488" height="257" transform="matrix(-1 0 0 1 1431.48 958)" fill="url(#paint7_linear_30_516)"/>
<rect width="62.4488" height="257" transform="matrix(-1 0 0 1 1271.04 920)" fill="url(#paint8_linear_30_516)"/>
<rect x="283.422" y="129" width="62.4488" height="257" fill="url(#paint9_linear_30_516)"/>
<rect x="326.656" y="230" width="62.4488" height="257" fill="url(#paint10_linear_30_516)"/>
<rect x="201.758" y="101" width="62.4488" height="257" fill="url(#paint11_linear_30_516)"/>
<rect x="122.977" y="124" width="62.4488" height="257" fill="url(#paint12_linear_30_516)"/>
<rect x="160.445" y="64" width="62.4488" height="257" fill="url(#paint13_linear_30_516)"/>
<rect width="62.4488" height="257" fill="url(#paint14_linear_30_516)"/>
<rect x="37.4688" y="101" width="62.4488" height="257" fill="url(#paint15_linear_30_516)"/>
<rect x="80.7031" y="201" width="62.4488" height="257" fill="url(#paint16_linear_30_516)"/>
<rect x="241.148" y="163" width="62.4488" height="257" fill="url(#paint17_linear_30_516)"/>
<rect x="305" y="418" width="1212" height="276" fill="#EEF1F7"/>
<defs>
<linearGradient id="paint0_linear_30_516" x1="31.2244" y1="0" x2="31.2244" y2="257" gradientUnits="userSpaceOnUse">
<stop stop-color="#E5E9EC" stop-opacity="0.58"/>
<stop offset="1" stop-color="#F9FCFE" stop-opacity="0"/>
</linearGradient>
<linearGradient id="paint1_linear_30_516" x1="31.2244" y1="0" x2="31.2244" y2="257" gradientUnits="userSpaceOnUse">
<stop stop-color="#E5E9EC" stop-opacity="0.58"/>
<stop offset="1" stop-color="#F9FCFE" stop-opacity="0"/>
</linearGradient>
<linearGradient id="paint2_linear_30_516" x1="31.2244" y1="0" x2="31.2244" y2="257" gradientUnits="userSpaceOnUse">
<stop stop-color="#E5E9EC" stop-opacity="0.58"/>
<stop offset="1" stop-color="#F9FCFE" stop-opacity="0"/>
</linearGradient>
<linearGradient id="paint3_linear_30_516" x1="31.2244" y1="0" x2="31.2244" y2="257" gradientUnits="userSpaceOnUse">
<stop stop-color="#E5E9EC" stop-opacity="0.58"/>
<stop offset="1" stop-color="#F9FCFE" stop-opacity="0"/>
</linearGradient>
<linearGradient id="paint4_linear_30_516" x1="31.2244" y1="0" x2="31.2244" y2="257" gradientUnits="userSpaceOnUse">
<stop stop-color="#E5E9EC" stop-opacity="0.58"/>
<stop offset="1" stop-color="#F9FCFE" stop-opacity="0"/>
</linearGradient>
<linearGradient id="paint5_linear_30_516" x1="31.2244" y1="0" x2="31.2244" y2="257" gradientUnits="userSpaceOnUse">
<stop stop-color="#E5E9EC" stop-opacity="0.58"/>
<stop offset="1" stop-color="#F9FCFE" stop-opacity="0"/>
</linearGradient>
<linearGradient id="paint6_linear_30_516" x1="31.2244" y1="0" x2="31.2244" y2="257" gradientUnits="userSpaceOnUse">
<stop stop-color="#E5E9EC" stop-opacity="0.58"/>
<stop offset="1" stop-color="#F9FCFE" stop-opacity="0"/>
</linearGradient>
<linearGradient id="paint7_linear_30_516" x1="31.2244" y1="0" x2="31.2244" y2="257" gradientUnits="userSpaceOnUse">
<stop stop-color="#E5E9EC" stop-opacity="0.58"/>
<stop offset="1" stop-color="#F9FCFE" stop-opacity="0"/>
</linearGradient>
<linearGradient id="paint8_linear_30_516" x1="31.2244" y1="0" x2="31.2244" y2="257" gradientUnits="userSpaceOnUse">
<stop stop-color="#E5E9EC" stop-opacity="0.58"/>
<stop offset="1" stop-color="#F9FCFE" stop-opacity="0"/>
</linearGradient>
<linearGradient id="paint9_linear_30_516" x1="314.646" y1="129" x2="314.646" y2="386" gradientUnits="userSpaceOnUse">
<stop stop-color="#E5E9EC" stop-opacity="0.58"/>
<stop offset="1" stop-color="#F9FCFE" stop-opacity="0"/>
</linearGradient>
<linearGradient id="paint10_linear_30_516" x1="357.881" y1="230" x2="357.881" y2="487" gradientUnits="userSpaceOnUse">
<stop stop-color="#E5E9EC" stop-opacity="0.58"/>
<stop offset="1" stop-color="#F9FCFE" stop-opacity="0"/>
</linearGradient>
<linearGradient id="paint11_linear_30_516" x1="232.982" y1="101" x2="232.982" y2="358" gradientUnits="userSpaceOnUse">
<stop stop-color="#E5E9EC" stop-opacity="0.58"/>
<stop offset="1" stop-color="#F9FCFE" stop-opacity="0"/>
</linearGradient>
<linearGradient id="paint12_linear_30_516" x1="154.201" y1="124" x2="154.201" y2="381" gradientUnits="userSpaceOnUse">
<stop stop-color="#E5E9EC" stop-opacity="0.58"/>
<stop offset="1" stop-color="#F9FCFE" stop-opacity="0"/>
</linearGradient>
<linearGradient id="paint13_linear_30_516" x1="191.67" y1="64" x2="191.67" y2="321" gradientUnits="userSpaceOnUse">
<stop stop-color="#E5E9EC" stop-opacity="0.58"/>
<stop offset="1" stop-color="#F9FCFE" stop-opacity="0"/>
</linearGradient>
<linearGradient id="paint14_linear_30_516" x1="31.2244" y1="0" x2="31.2244" y2="257" gradientUnits="userSpaceOnUse">
<stop stop-color="#E5E9EC" stop-opacity="0.58"/>
<stop offset="1" stop-color="#F9FCFE" stop-opacity="0"/>
</linearGradient>
<linearGradient id="paint15_linear_30_516" x1="68.6932" y1="101" x2="68.6932" y2="358" gradientUnits="userSpaceOnUse">
<stop stop-color="#E5E9EC" stop-opacity="0.58"/>
<stop offset="1" stop-color="#F9FCFE" stop-opacity="0"/>
</linearGradient>
<linearGradient id="paint16_linear_30_516" x1="111.928" y1="201" x2="111.928" y2="458" gradientUnits="userSpaceOnUse">
<stop stop-color="#E5E9EC" stop-opacity="0.58"/>
<stop offset="1" stop-color="#F9FCFE" stop-opacity="0"/>
</linearGradient>
<linearGradient id="paint17_linear_30_516" x1="272.373" y1="163" x2="272.373" y2="420" gradientUnits="userSpaceOnUse">
<stop stop-color="#E5E9EC" stop-opacity="0.58"/>
<stop offset="1" stop-color="#F9FCFE" stop-opacity="0"/>
</linearGradient>
</defs>
</svg>
