<svg width="1443" height="540" viewBox="0 0 1443 540" fill="none" xmlns="http://www.w3.org/2000/svg">
<rect width="65" height="257" transform="matrix(-1 0 0 1 1148 182)" fill="url(#paint0_linear_12_507)"/>
<rect width="65" height="257" transform="matrix(-1 0 0 1 1103 283)" fill="url(#paint1_linear_12_507)"/>
<rect width="65" height="257" transform="matrix(-1 0 0 1 1233 154)" fill="url(#paint2_linear_12_507)"/>
<rect width="65" height="257" transform="matrix(-1 0 0 1 1315 177)" fill="url(#paint3_linear_12_507)"/>
<rect width="65" height="257" transform="matrix(-1 0 0 1 1276 117)" fill="url(#paint4_linear_12_507)"/>
<rect width="65" height="257" transform="matrix(-1 0 0 1 1443 53)" fill="url(#paint5_linear_12_507)"/>
<rect width="65" height="257" transform="matrix(-1 0 0 1 1404 154)" fill="url(#paint6_linear_12_507)"/>
<rect width="65" height="257" transform="matrix(-1 0 0 1 1359 254)" fill="url(#paint7_linear_12_507)"/>
<rect width="65" height="257" transform="matrix(-1 0 0 1 1192 216)" fill="url(#paint8_linear_12_507)"/>
<rect width="9.82011" height="9.82011" transform="matrix(-1 0 0 1 154.666 28.2324)" fill="#EDF1F4"/>
<rect width="24.5503" height="24.5503" transform="matrix(-1 0 0 1 162.031 62.6035)" fill="#EDF1F4"/>
<rect width="24.5503" height="24.5503" transform="matrix(-1 0 0 1 196.402 81.0156)" fill="#EDF1F4"/>
<rect width="9.82011" height="9.82011" transform="matrix(-1 0 0 1 120.297 25.7773)" fill="#EDF1F4"/>
<rect width="24.5503" height="24.5503" transform="matrix(-1 0 0 1 127.662 55.2383)" fill="#EDF1F4"/>
<rect width="19.6402" height="19.6402" transform="matrix(-1 0 0 1 159.576 108.021)" fill="#EDF1F4"/>
<rect width="14.7302" height="14.7302" transform="matrix(-1 0 0 1 157.121 166.941)" fill="#EDF1F4"/>
<path d="M120.297 101.883H110.477V111.703H120.297V101.883Z" fill="#EDF1F4"/>
<rect width="24.5503" height="24.5503" transform="matrix(-1 0 0 1 127.662 133.799)" fill="#EDF1F4"/>
<rect width="24.5503" height="24.5503" transform="matrix(-1 0 0 1 89.6094 0)" fill="#EDF1F4"/>
<rect width="14.7302" height="14.7302" transform="matrix(-1 0 0 1 84.6992 74.8789)" fill="#EDF1F4"/>
<rect width="9.82011" height="9.82011" transform="matrix(-1 0 0 1 47.873 20.8672)" fill="#EDF1F4"/>
<rect width="24.5503" height="24.5503" transform="matrix(-1 0 0 1 52.7832 72.4238)" fill="#EDF1F4"/>
<rect width="17.1852" height="17.1852" transform="matrix(-1 0 0 1 17.1855 149.756)" fill="#EDF1F4"/>
<rect width="17.1852" height="17.1852" transform="matrix(-1 0 0 1 17.1855 41.7363)" fill="#EDF1F4"/>
<rect width="24.5503" height="24.5503" transform="matrix(-1 0 0 1 89.6094 117.842)" fill="#EDF1F4"/>
<rect width="24.5503" height="24.5503" transform="matrix(-1 0 0 1 89.6094 162.031)" fill="#EDF1F4"/>
<rect width="9.82011" height="9.82011" transform="matrix(-1 0 0 1 47.873 112.932)" fill="#EDF1F4"/>
<rect width="24.5503" height="24.5503" transform="matrix(-1 0 0 1 55.2383 174.307)" fill="#EDF1F4"/>
<rect width="19.6402" height="19.6402" transform="matrix(-1 0 0 1 52.7832 212.359)" fill="#EDF1F4"/>
<defs>
<linearGradient id="paint0_linear_12_507" x1="32.5" y1="0" x2="32.5" y2="257" gradientUnits="userSpaceOnUse">
<stop stop-color="#E5E9EC" stop-opacity="0.58"/>
<stop offset="1" stop-color="#F9FCFE" stop-opacity="0"/>
</linearGradient>
<linearGradient id="paint1_linear_12_507" x1="32.5" y1="0" x2="32.5" y2="257" gradientUnits="userSpaceOnUse">
<stop stop-color="#E5E9EC" stop-opacity="0.58"/>
<stop offset="1" stop-color="#F9FCFE" stop-opacity="0"/>
</linearGradient>
<linearGradient id="paint2_linear_12_507" x1="32.5" y1="0" x2="32.5" y2="257" gradientUnits="userSpaceOnUse">
<stop stop-color="#E5E9EC" stop-opacity="0.58"/>
<stop offset="1" stop-color="#F9FCFE" stop-opacity="0"/>
</linearGradient>
<linearGradient id="paint3_linear_12_507" x1="32.5" y1="0" x2="32.5" y2="257" gradientUnits="userSpaceOnUse">
<stop stop-color="#E5E9EC" stop-opacity="0.58"/>
<stop offset="1" stop-color="#F9FCFE" stop-opacity="0"/>
</linearGradient>
<linearGradient id="paint4_linear_12_507" x1="32.5" y1="0" x2="32.5" y2="257" gradientUnits="userSpaceOnUse">
<stop stop-color="#E5E9EC" stop-opacity="0.58"/>
<stop offset="1" stop-color="#F9FCFE" stop-opacity="0"/>
</linearGradient>
<linearGradient id="paint5_linear_12_507" x1="32.5" y1="0" x2="32.5" y2="257" gradientUnits="userSpaceOnUse">
<stop stop-color="#E5E9EC" stop-opacity="0.58"/>
<stop offset="1" stop-color="#F9FCFE" stop-opacity="0"/>
</linearGradient>
<linearGradient id="paint6_linear_12_507" x1="32.5" y1="0" x2="32.5" y2="257" gradientUnits="userSpaceOnUse">
<stop stop-color="#E5E9EC" stop-opacity="0.58"/>
<stop offset="1" stop-color="#F9FCFE" stop-opacity="0"/>
</linearGradient>
<linearGradient id="paint7_linear_12_507" x1="32.5" y1="0" x2="32.5" y2="257" gradientUnits="userSpaceOnUse">
<stop stop-color="#E5E9EC" stop-opacity="0.58"/>
<stop offset="1" stop-color="#F9FCFE" stop-opacity="0"/>
</linearGradient>
<linearGradient id="paint8_linear_12_507" x1="32.5" y1="0" x2="32.5" y2="257" gradientUnits="userSpaceOnUse">
<stop stop-color="#E5E9EC" stop-opacity="0.58"/>
<stop offset="1" stop-color="#F9FCFE" stop-opacity="0"/>
</linearGradient>
</defs>
</svg>
