<svg width="1483" height="962" viewBox="0 0 1483 962" fill="none" xmlns="http://www.w3.org/2000/svg">
<rect x="303.156" y="604" width="66.7971" height="257" fill="url(#paint0_linear_29_515)"/>
<rect x="349.4" y="705" width="66.7971" height="257" fill="url(#paint1_linear_29_515)"/>
<rect x="215.807" y="576" width="66.7971" height="257" fill="url(#paint2_linear_29_515)"/>
<rect x="131.539" y="599" width="66.7971" height="257" fill="url(#paint3_linear_29_515)"/>
<rect x="171.617" y="539" width="66.7971" height="257" fill="url(#paint4_linear_29_515)"/>
<rect y="475" width="66.7971" height="257" fill="url(#paint5_linear_29_515)"/>
<rect x="40.0781" y="576" width="66.7971" height="257" fill="url(#paint6_linear_29_515)"/>
<rect x="86.3223" y="676" width="66.7971" height="257" fill="url(#paint7_linear_29_515)"/>
<rect x="257.939" y="638" width="66.7971" height="257" fill="url(#paint8_linear_29_515)"/>
<rect x="1324.05" y="28.2324" width="10.0916" height="9.82011" fill="#EDF1F4"/>
<rect x="1316.49" y="62.6035" width="25.229" height="24.5503" fill="#EDF1F4"/>
<rect x="1281.17" y="81.0156" width="25.229" height="24.5503" fill="#EDF1F4"/>
<rect x="1359.38" y="25.7773" width="10.0916" height="9.82011" fill="#EDF1F4"/>
<rect x="1351.81" y="55.2383" width="25.229" height="24.5503" fill="#EDF1F4"/>
<rect x="1319.01" y="108.021" width="20.1832" height="19.6402" fill="#EDF1F4"/>
<rect x="1321.54" y="166.941" width="15.1374" height="14.7302" fill="#EDF1F4"/>
<path d="M1359.38 101.883H1369.47V111.703H1359.38V101.883Z" fill="#EDF1F4"/>
<rect x="1351.81" y="133.799" width="25.229" height="24.5503" fill="#EDF1F4"/>
<rect x="1390.91" width="25.229" height="24.5503" fill="#EDF1F4"/>
<rect x="1395.96" y="74.8789" width="15.1374" height="14.7302" fill="#EDF1F4"/>
<rect x="1433.8" y="20.8672" width="10.0916" height="9.82011" fill="#EDF1F4"/>
<rect x="1428.76" y="72.4238" width="25.229" height="24.5503" fill="#EDF1F4"/>
<rect x="1465.34" y="149.756" width="17.6603" height="17.1852" fill="#EDF1F4"/>
<rect x="1465.34" y="41.7363" width="17.6603" height="17.1852" fill="#EDF1F4"/>
<rect x="1390.91" y="117.842" width="25.229" height="24.5503" fill="#EDF1F4"/>
<rect x="1390.91" y="162.031" width="25.229" height="24.5503" fill="#EDF1F4"/>
<rect x="1433.8" y="112.932" width="10.0916" height="9.82011" fill="#EDF1F4"/>
<rect x="1426.23" y="174.307" width="25.229" height="24.5503" fill="#EDF1F4"/>
<rect x="1428.76" y="212.359" width="20.1832" height="19.6402" fill="#EDF1F4"/>
<rect x="123" y="5" width="3.27273" height="3.27273" fill="#EDF1F4"/>
<rect x="132.818" y="5" width="3.27273" height="3.27273" fill="#EDF1F4"/>
<rect x="142.637" y="5" width="3.27273" height="3.27273" fill="#EDF1F4"/>
<rect x="152.455" y="5" width="3.27273" height="3.27273" fill="#EDF1F4"/>
<rect x="162.273" y="5" width="3.27273" height="3.27273" fill="#EDF1F4"/>
<rect x="172.092" y="5" width="3.27273" height="3.27273" fill="#EDF1F4"/>
<rect x="181.908" y="5" width="3.27273" height="3.27273" fill="#EDF1F4"/>
<rect x="191.727" y="5" width="3.27273" height="3.27273" fill="#EDF1F4"/>
<rect x="201.545" y="5" width="3.27273" height="3.27273" fill="#EDF1F4"/>
<rect x="211.363" y="5" width="3.27273" height="3.27273" fill="#EDF1F4"/>
<rect x="221.182" y="5" width="3.27273" height="3.27273" fill="#EDF1F4"/>
<rect x="231" y="5" width="3.27273" height="3.27273" fill="#EDF1F4"/>
<rect x="240.818" y="5" width="3.27273" height="3.27273" fill="#EDF1F4"/>
<rect x="250.637" y="5" width="3.27273" height="3.27273" fill="#EDF1F4"/>
<rect x="260.455" y="5" width="3.27273" height="3.27273" fill="#EDF1F4"/>
<rect x="270.273" y="5" width="3.27273" height="3.27273" fill="#EDF1F4"/>
<rect x="280.092" y="5" width="3.27273" height="3.27273" fill="#EDF1F4"/>
<rect x="289.908" y="5" width="3.27273" height="3.27273" fill="#EDF1F4"/>
<rect x="299.727" y="5" width="3.27273" height="3.27273" fill="#EDF1F4"/>
<rect x="123" y="24.6367" width="3.27273" height="3.27273" fill="#EDF1F4"/>
<rect x="132.818" y="24.6367" width="3.27273" height="3.27273" fill="#EDF1F4"/>
<rect x="142.637" y="24.6367" width="3.27273" height="3.27273" fill="#EDF1F4"/>
<rect x="152.455" y="24.6367" width="3.27273" height="3.27273" fill="#EDF1F4"/>
<rect x="162.273" y="24.6367" width="3.27273" height="3.27273" fill="#EDF1F4"/>
<rect x="172.092" y="24.6367" width="3.27273" height="3.27273" fill="#EDF1F4"/>
<rect x="181.908" y="24.6367" width="3.27273" height="3.27273" fill="#EDF1F4"/>
<rect x="191.727" y="24.6367" width="3.27273" height="3.27273" fill="#EDF1F4"/>
<rect x="201.545" y="24.6367" width="3.27273" height="3.27273" fill="#EDF1F4"/>
<rect x="211.363" y="24.6367" width="3.27273" height="3.27273" fill="#EDF1F4"/>
<rect x="221.182" y="24.6367" width="3.27273" height="3.27273" fill="#EDF1F4"/>
<rect x="231" y="24.6367" width="3.27273" height="3.27273" fill="#EDF1F4"/>
<rect x="240.818" y="24.6367" width="3.27273" height="3.27273" fill="#EDF1F4"/>
<rect x="250.637" y="24.6367" width="3.27273" height="3.27273" fill="#EDF1F4"/>
<rect x="260.455" y="24.6367" width="3.27273" height="3.27273" fill="#EDF1F4"/>
<rect x="270.273" y="24.6367" width="3.27273" height="3.27273" fill="#EDF1F4"/>
<rect x="280.092" y="24.6367" width="3.27273" height="3.27273" fill="#EDF1F4"/>
<rect x="289.908" y="24.6367" width="3.27273" height="3.27273" fill="#EDF1F4"/>
<rect x="299.727" y="24.6367" width="3.27273" height="3.27273" fill="#EDF1F4"/>
<rect x="123" y="44.2734" width="3.27273" height="3.27273" fill="#EDF1F4"/>
<rect x="132.818" y="44.2734" width="3.27273" height="3.27273" fill="#EDF1F4"/>
<rect x="142.637" y="44.2734" width="3.27273" height="3.27273" fill="#EDF1F4"/>
<rect x="152.455" y="44.2734" width="3.27273" height="3.27273" fill="#EDF1F4"/>
<rect x="162.273" y="44.2734" width="3.27273" height="3.27273" fill="#EDF1F4"/>
<rect x="172.092" y="44.2734" width="3.27273" height="3.27273" fill="#EDF1F4"/>
<rect x="181.908" y="44.2734" width="3.27273" height="3.27273" fill="#EDF1F4"/>
<rect x="191.727" y="44.2734" width="3.27273" height="3.27273" fill="#EDF1F4"/>
<rect x="201.545" y="44.2734" width="3.27273" height="3.27273" fill="#EDF1F4"/>
<rect x="211.363" y="44.2734" width="3.27273" height="3.27273" fill="#EDF1F4"/>
<rect x="221.182" y="44.2734" width="3.27273" height="3.27273" fill="#EDF1F4"/>
<rect x="231" y="44.2734" width="3.27273" height="3.27273" fill="#EDF1F4"/>
<rect x="240.818" y="44.2734" width="3.27273" height="3.27273" fill="#EDF1F4"/>
<rect x="250.637" y="44.2734" width="3.27273" height="3.27273" fill="#EDF1F4"/>
<rect x="260.455" y="44.2734" width="3.27273" height="3.27273" fill="#EDF1F4"/>
<rect x="270.273" y="44.2734" width="3.27273" height="3.27273" fill="#EDF1F4"/>
<rect x="280.092" y="44.2734" width="3.27273" height="3.27273" fill="#EDF1F4"/>
<rect x="289.908" y="44.2734" width="3.27273" height="3.27273" fill="#EDF1F4"/>
<rect x="299.727" y="44.2734" width="3.27273" height="3.27273" fill="#EDF1F4"/>
<rect x="123" y="63.9082" width="3.27273" height="3.27273" fill="#EDF1F4"/>
<rect x="132.818" y="63.9082" width="3.27273" height="3.27273" fill="#EDF1F4"/>
<rect x="142.637" y="63.9082" width="3.27273" height="3.27273" fill="#EDF1F4"/>
<rect x="152.455" y="63.9082" width="3.27273" height="3.27273" fill="#EDF1F4"/>
<rect x="162.273" y="63.9082" width="3.27273" height="3.27273" fill="#EDF1F4"/>
<rect x="172.092" y="63.9082" width="3.27273" height="3.27273" fill="#EDF1F4"/>
<rect x="181.908" y="63.9082" width="3.27273" height="3.27273" fill="#EDF1F4"/>
<rect x="191.727" y="63.9082" width="3.27273" height="3.27273" fill="#EDF1F4"/>
<rect x="201.545" y="63.9082" width="3.27273" height="3.27273" fill="#EDF1F4"/>
<rect x="211.363" y="63.9082" width="3.27273" height="3.27273" fill="#EDF1F4"/>
<rect x="221.182" y="63.9082" width="3.27273" height="3.27273" fill="#EDF1F4"/>
<rect x="231" y="63.9082" width="3.27273" height="3.27273" fill="#EDF1F4"/>
<rect x="240.818" y="63.9082" width="3.27273" height="3.27273" fill="#EDF1F4"/>
<rect x="250.637" y="63.9082" width="3.27273" height="3.27273" fill="#EDF1F4"/>
<rect x="260.455" y="63.9082" width="3.27273" height="3.27273" fill="#EDF1F4"/>
<rect x="270.273" y="63.9082" width="3.27273" height="3.27273" fill="#EDF1F4"/>
<rect x="280.092" y="63.9082" width="3.27273" height="3.27273" fill="#EDF1F4"/>
<rect x="289.908" y="63.9082" width="3.27273" height="3.27273" fill="#EDF1F4"/>
<rect x="299.727" y="63.9082" width="3.27273" height="3.27273" fill="#EDF1F4"/>
<rect x="123" y="83.5449" width="3.27273" height="3.27273" fill="#EDF1F4"/>
<rect x="132.818" y="83.5449" width="3.27273" height="3.27273" fill="#EDF1F4"/>
<rect x="142.637" y="83.5449" width="3.27273" height="3.27273" fill="#EDF1F4"/>
<rect x="152.455" y="83.5449" width="3.27273" height="3.27273" fill="#EDF1F4"/>
<rect x="162.273" y="83.5449" width="3.27273" height="3.27273" fill="#EDF1F4"/>
<rect x="172.092" y="83.5449" width="3.27273" height="3.27273" fill="#EDF1F4"/>
<rect x="181.908" y="83.5449" width="3.27273" height="3.27273" fill="#EDF1F4"/>
<rect x="191.727" y="83.5449" width="3.27273" height="3.27273" fill="#EDF1F4"/>
<rect x="201.545" y="83.5449" width="3.27273" height="3.27273" fill="#EDF1F4"/>
<rect x="211.363" y="83.5449" width="3.27273" height="3.27273" fill="#EDF1F4"/>
<rect x="221.182" y="83.5449" width="3.27273" height="3.27273" fill="#EDF1F4"/>
<rect x="231" y="83.5449" width="3.27273" height="3.27273" fill="#EDF1F4"/>
<rect x="240.818" y="83.5449" width="3.27273" height="3.27273" fill="#EDF1F4"/>
<rect x="250.637" y="83.5449" width="3.27273" height="3.27273" fill="#EDF1F4"/>
<rect x="260.455" y="83.5449" width="3.27273" height="3.27273" fill="#EDF1F4"/>
<rect x="270.273" y="83.5449" width="3.27273" height="3.27273" fill="#EDF1F4"/>
<rect x="280.092" y="83.5449" width="3.27273" height="3.27273" fill="#EDF1F4"/>
<rect x="289.908" y="83.5449" width="3.27273" height="3.27273" fill="#EDF1F4"/>
<rect x="299.727" y="83.5449" width="3.27273" height="3.27273" fill="#EDF1F4"/>
<rect x="123" y="103.182" width="3.27273" height="3.27273" fill="#EDF1F4"/>
<rect x="132.818" y="103.182" width="3.27273" height="3.27273" fill="#EDF1F4"/>
<rect x="142.637" y="103.182" width="3.27273" height="3.27273" fill="#EDF1F4"/>
<rect x="152.455" y="103.182" width="3.27273" height="3.27273" fill="#EDF1F4"/>
<rect x="162.273" y="103.182" width="3.27273" height="3.27273" fill="#EDF1F4"/>
<rect x="172.092" y="103.182" width="3.27273" height="3.27273" fill="#EDF1F4"/>
<rect x="181.908" y="103.182" width="3.27273" height="3.27273" fill="#EDF1F4"/>
<rect x="191.727" y="103.182" width="3.27273" height="3.27273" fill="#EDF1F4"/>
<rect x="201.545" y="103.182" width="3.27273" height="3.27273" fill="#EDF1F4"/>
<rect x="211.363" y="103.182" width="3.27273" height="3.27273" fill="#EDF1F4"/>
<rect x="221.182" y="103.182" width="3.27273" height="3.27273" fill="#EDF1F4"/>
<rect x="231" y="103.182" width="3.27273" height="3.27273" fill="#EDF1F4"/>
<rect x="240.818" y="103.182" width="3.27273" height="3.27273" fill="#EDF1F4"/>
<rect x="250.637" y="103.182" width="3.27273" height="3.27273" fill="#EDF1F4"/>
<rect x="260.455" y="103.182" width="3.27273" height="3.27273" fill="#EDF1F4"/>
<rect x="270.273" y="103.182" width="3.27273" height="3.27273" fill="#EDF1F4"/>
<rect x="280.092" y="103.182" width="3.27273" height="3.27273" fill="#EDF1F4"/>
<rect x="289.908" y="103.182" width="3.27273" height="3.27273" fill="#EDF1F4"/>
<rect x="299.727" y="103.182" width="3.27273" height="3.27273" fill="#EDF1F4"/>
<defs>
<linearGradient id="paint0_linear_29_515" x1="336.555" y1="604" x2="336.555" y2="861" gradientUnits="userSpaceOnUse">
<stop stop-color="#E5E9EC" stop-opacity="0.58"/>
<stop offset="1" stop-color="#F9FCFE" stop-opacity="0"/>
</linearGradient>
<linearGradient id="paint1_linear_29_515" x1="382.799" y1="705" x2="382.799" y2="962" gradientUnits="userSpaceOnUse">
<stop stop-color="#E5E9EC" stop-opacity="0.58"/>
<stop offset="1" stop-color="#F9FCFE" stop-opacity="0"/>
</linearGradient>
<linearGradient id="paint2_linear_29_515" x1="249.205" y1="576" x2="249.205" y2="833" gradientUnits="userSpaceOnUse">
<stop stop-color="#E5E9EC" stop-opacity="0.58"/>
<stop offset="1" stop-color="#F9FCFE" stop-opacity="0"/>
</linearGradient>
<linearGradient id="paint3_linear_29_515" x1="164.938" y1="599" x2="164.938" y2="856" gradientUnits="userSpaceOnUse">
<stop stop-color="#E5E9EC" stop-opacity="0.58"/>
<stop offset="1" stop-color="#F9FCFE" stop-opacity="0"/>
</linearGradient>
<linearGradient id="paint4_linear_29_515" x1="205.016" y1="539" x2="205.016" y2="796" gradientUnits="userSpaceOnUse">
<stop stop-color="#E5E9EC" stop-opacity="0.58"/>
<stop offset="1" stop-color="#F9FCFE" stop-opacity="0"/>
</linearGradient>
<linearGradient id="paint5_linear_29_515" x1="33.3985" y1="475" x2="33.3985" y2="732" gradientUnits="userSpaceOnUse">
<stop stop-color="#E5E9EC" stop-opacity="0.58"/>
<stop offset="1" stop-color="#F9FCFE" stop-opacity="0"/>
</linearGradient>
<linearGradient id="paint6_linear_29_515" x1="73.4767" y1="576" x2="73.4767" y2="833" gradientUnits="userSpaceOnUse">
<stop stop-color="#E5E9EC" stop-opacity="0.58"/>
<stop offset="1" stop-color="#F9FCFE" stop-opacity="0"/>
</linearGradient>
<linearGradient id="paint7_linear_29_515" x1="119.721" y1="676" x2="119.721" y2="933" gradientUnits="userSpaceOnUse">
<stop stop-color="#E5E9EC" stop-opacity="0.58"/>
<stop offset="1" stop-color="#F9FCFE" stop-opacity="0"/>
</linearGradient>
<linearGradient id="paint8_linear_29_515" x1="291.338" y1="638" x2="291.338" y2="895" gradientUnits="userSpaceOnUse">
<stop stop-color="#E5E9EC" stop-opacity="0.58"/>
<stop offset="1" stop-color="#F9FCFE" stop-opacity="0"/>
</linearGradient>
</defs>
</svg>
