<svg width="224" height="64" viewBox="0 0 224 64" fill="none" xmlns="http://www.w3.org/2000/svg">
<path d="M72.1367 45.1155V17.9759L78.6067 11.5059H97.3869L103.742 17.8614V23.129H97.1006V20.2089L94.066 17.2315H82.0421L78.7785 20.4379V42.6535L82.0421 45.8599H94.066L97.1006 42.8825V39.9624H103.742V45.2301L97.3869 51.5855H78.6067L72.1367 45.1155Z" fill="#21294D"/>
<path d="M108.636 46.4897V39.7334L113.731 34.6948H128.446V30.4578L126.328 28.3393H117.339L115.22 30.4578V32.29H108.865V28.9692L114.705 23.0717H128.962L134.802 28.9692V51.5855H128.904V47.1768L124.324 51.5855H113.731L108.636 46.4897ZM123.694 46.4897L128.446 41.9092V39.5044H116.823L114.991 41.2793V44.772L116.709 46.4897H123.694Z" fill="#21294D"/>
<path d="M141.981 23.0717H147.993V28.2821L153.203 23.0717H162.25L168.262 29.0837V51.5855H161.792V30.8586L159.559 28.6256H154.406L148.451 34.6376V51.5855H141.981V23.0717Z" fill="#21294D"/>
<path d="M177.435 45.9171V28.5684H172.282V23.0717H177.55V13.7961H183.905V23.0717H192.666V28.5684H183.905V43.8559L186.138 46.0889H192.666V51.5855H183.104L177.435 45.9171Z" fill="#21294D"/>
<path d="M196.708 45.8599V28.7974L202.376 23.0717H218.179L223.905 28.7974V45.8599L218.179 51.5855H202.376L196.708 45.8599ZM215.145 46.1462L217.435 43.8559V30.8014L215.145 28.5111H205.468L203.178 30.8014V43.8559L205.468 46.1462H215.145Z" fill="#21294D"/>
<path fill-rule="evenodd" clip-rule="evenodd" d="M10.5923 0.603516V11.2065H0.402344V12.3082V52.2416H10.73V63.3955H59.3387V0.603516H11.6939H10.5923ZM22.1582 11.3437V22.0844H11.4181V41.6381H22.1582V52.3785H48.3215V41.6378L22.1588 41.6378V22.0844L48.3215 22.0844V11.3437L22.1582 11.3437Z" fill="#39F5A9"/>
</svg>
