<svg width="362" height="91" viewBox="0 0 362 91" fill="none" xmlns="http://www.w3.org/2000/svg">
<path fill-rule="evenodd" clip-rule="evenodd" d="M35.1582 2.02959C40.0289 -0.676526 45.9633 -0.676531 50.834 2.02959L63.9961 9.34233L76.9479 17.0172C81.7408 19.8573 84.708 24.9662 84.7858 30.5124L84.9961 45.5L84.7858 60.4876C84.708 66.0338 81.7408 71.1427 76.9479 73.9828L63.9961 81.6577L50.834 88.9704C45.9633 91.6765 40.0289 91.6765 35.1582 88.9704L21.9961 81.6577L9.0443 73.9828C4.25142 71.1427 1.28423 66.0338 1.2064 60.4876L0.996094 45.5L1.2064 30.5124C1.28423 24.9662 4.25141 19.8573 9.04429 17.0172L21.9961 9.34233L35.1582 2.02959ZM44.9848 12.4331C43.749 11.7465 42.2432 11.7465 41.0074 12.4331L27.9913 19.6647L15.1831 27.2545C13.967 27.9751 13.2141 29.2714 13.1944 30.6786L12.9864 45.5L13.1944 60.3214C13.2141 61.7286 13.967 63.0249 15.1831 63.7455L27.9913 71.3353L41.0074 78.5669C42.2432 79.2535 43.749 79.2535 44.9848 78.5669L58.0009 71.3353L70.8091 63.7455C72.0252 63.0249 72.7781 61.7286 72.7978 60.3214L73.0058 45.5L72.7978 30.6786C72.7781 29.2714 72.0252 27.9751 70.8091 27.2545L58.0009 19.6648L44.9848 12.4331Z" fill="#FF9500"/>
<path d="M98.227 43.908C98.227 52.5987 103.15 57.373 114.639 57.373C125.045 57.373 130.267 53.382 130.938 45.8103H124.112C123.478 50.0624 120.196 51.7408 114.639 51.7408C107.85 51.7408 104.941 49.2791 104.941 43.908C104.941 38.5743 107.813 36.1499 114.639 36.1499C120.233 36.1499 123.478 37.791 124.112 42.0058H130.938C130.267 34.4714 125.045 30.5177 114.639 30.5177C103.15 30.5177 98.227 35.2547 98.227 43.908ZM154.833 57.373C166.283 57.373 171.244 52.5614 171.244 43.908C171.244 35.292 166.283 30.5177 154.833 30.5177C143.344 30.5177 138.421 35.2547 138.421 43.908C138.421 52.5987 143.344 57.373 154.833 57.373ZM154.833 51.7408C147.858 51.7408 145.135 49.2791 145.135 43.908C145.135 38.5743 147.82 36.1499 154.833 36.1499C161.845 36.1499 164.53 38.6116 164.53 43.908C164.53 49.2418 161.807 51.7408 154.833 51.7408ZM209.608 40.4765C209.608 34.6579 205.542 30.8907 199.612 30.8907H179.097V57H185.811V50.0251H196.628L200.843 57H208.75L203.938 49.2418C207.445 47.8617 209.608 44.7286 209.608 40.4765ZM185.811 36.5228H197.747C199.761 36.5228 202.894 36.5228 202.894 40.4765C202.894 44.3929 199.761 44.3929 197.747 44.3929H185.811V36.5228ZM244.816 36.2245V30.8907H217.215V57H244.816V51.6662H223.929V46.3698H244.816V41.5209H223.929V36.2245H244.816ZM271.622 30.8907H252.674V57H271.622C278.373 57 284.304 52.8225 284.304 43.9453C284.304 35.0682 278.373 30.8907 271.622 30.8907ZM269.086 51.3678H259.388V36.5228H269.086C274.158 36.5228 277.59 37.6045 277.59 43.9453C277.59 50.2862 274.158 51.3678 269.086 51.3678ZM316.332 57H323.754L310.252 30.8907H301.188L287.723 57H295.109L297.906 51.4424H313.534L316.332 57ZM300.405 46.4444L305.739 35.8515L311.035 46.4444H300.405ZM343.819 57.373C355.27 57.373 360.231 52.5614 360.231 43.908C360.231 35.292 355.27 30.5177 343.819 30.5177C332.331 30.5177 327.408 35.2547 327.408 43.908C327.408 52.5987 332.331 57.373 343.819 57.373ZM343.819 51.7408C336.844 51.7408 334.121 49.2791 334.121 43.908C334.121 38.5743 336.807 36.1499 343.819 36.1499C350.831 36.1499 353.517 38.6116 353.517 43.908C353.517 49.2418 350.794 51.7408 343.819 51.7408Z" fill="#161616"/>
</svg>
