<svg width="36" height="36" viewBox="0 0 36 36" fill="none" xmlns="http://www.w3.org/2000/svg">
<rect width="36" height="36" fill="#8B9BFF"/>
<path d="M19.7309 9.51063L21.4909 13.0306C21.7309 13.5206 22.3709 13.9906 22.9109 14.0806L26.1009 14.6106C28.1409 14.9506 28.6209 16.4306 27.1509 17.8906L24.6709 20.3706C24.2509 20.7906 24.0209 21.6006 24.1509 22.1806L24.8609 25.2506C25.4209 27.6806 24.1309 28.6206 21.9809 27.3506L18.9909 25.5806C18.4509 25.2606 17.5609 25.2606 17.0109 25.5806L14.0209 27.3506C11.8809 28.6206 10.5809 27.6706 11.1409 25.2506L11.8509 22.1806C11.9809 21.6006 11.7509 20.7906 11.3309 20.3706L8.85089 17.8906C7.39089 16.4306 7.86089 14.9506 9.90089 14.6106L13.0909 14.0806C13.6209 13.9906 14.2609 13.5206 14.5009 13.0306L16.2609 9.51063C17.2209 7.60063 18.7809 7.60063 19.7309 9.51063Z" stroke="white" stroke-width="1.5" stroke-linecap="round" stroke-linejoin="round"/>
</svg>
