<svg width="36" height="36" viewBox="0 0 36 36" fill="none" xmlns="http://www.w3.org/2000/svg">
<rect width="36" height="36" fill="#8B9BFF"/>
<path d="M17.74 23.7494H23.66C23.57 23.8294 23.48 23.8994 23.39 23.9794L19.12 27.1794C17.71 28.2294 15.41 28.2294 13.99 27.1794L9.71001 23.9794C8.77001 23.2794 8 21.7294 8 20.5594V13.1494C8 11.9294 8.93001 10.5794 10.07 10.1494L15.05 8.27938C15.87 7.96937 17.23 7.96937 18.05 8.27938L23.02 10.1494C23.97 10.5094 24.78 11.5094 25.03 12.5294H17.73C17.51 12.5294 17.31 12.5394 17.12 12.5394C15.27 12.6494 14.79 13.3194 14.79 15.4294V20.8594C14.8 23.1594 15.39 23.7494 17.74 23.7494Z" stroke="white" stroke-width="1.5" stroke-linecap="round" stroke-linejoin="round"/>
<path d="M14.8008 17.2188H28.0008" stroke="white" stroke-width="1.5" stroke-miterlimit="10" stroke-linecap="round" stroke-linejoin="round"/>
<path d="M28.0008 15.4198V20.9698C27.9808 23.1898 27.3708 23.7397 25.0608 23.7397H17.7408C15.3908 23.7397 14.8008 23.1498 14.8008 20.8398V15.4098C14.8008 13.3098 15.2808 12.6397 17.1308 12.5197C17.3208 12.5197 17.5208 12.5098 17.7408 12.5098H25.0608C27.4108 12.5198 28.0008 13.0998 28.0008 15.4198Z" stroke="white" stroke-width="1.5" stroke-linecap="round" stroke-linejoin="round"/>
<path d="M17.3203 21.2598H18.6503" stroke="white" stroke-width="1.5" stroke-miterlimit="10" stroke-linecap="round" stroke-linejoin="round"/>
<path d="M20.75 21.2598H24.02" stroke="white" stroke-width="1.5" stroke-miterlimit="10" stroke-linecap="round" stroke-linejoin="round"/>
</svg>
