<svg width="273" height="81" viewBox="0 0 273 81" fill="none" xmlns="http://www.w3.org/2000/svg">
<path d="M118.604 43.1917H123.212L123.23 43.2827C123.279 45.8689 122.496 47.9087 120.881 49.4021C119.278 50.8955 117.038 51.6422 114.16 51.6422C111.283 51.6422 108.952 50.7255 107.167 48.8922C105.382 47.0588 104.49 44.6729 104.49 41.7347V36.9995C104.49 34.0855 105.364 31.7057 107.112 29.8602C108.86 28.0147 111.173 27.0919 114.051 27.0919C116.929 27.0919 119.199 27.8447 120.862 29.3502C122.526 30.8558 123.333 32.9199 123.285 35.5425L123.248 35.6517H118.604C118.604 32.3978 117.05 30.7708 113.942 30.7708C112.521 30.7708 111.386 31.3475 110.536 32.501C109.698 33.6423 109.279 35.1296 109.279 36.963V41.7347C109.279 43.5923 109.723 45.0979 110.609 46.2514C111.495 47.3927 112.691 47.9633 114.197 47.9633C115.702 47.9633 116.813 47.5687 117.53 46.7795C118.246 45.9903 118.604 44.7944 118.604 43.1917ZM144.08 51.2598L142.459 46.1057H134.082L132.461 51.2598H127.635L135.848 27.4015H140.747L148.925 51.2598H144.08ZM138.234 32.9745L135.266 42.3539H141.294L138.343 32.9745H138.234ZM154.131 27.4015H160.378L166.46 44.9765H166.57L172.689 27.4015H178.954V51.2598H174.164V44.1387L174.62 33.6119L174.529 33.5937L168.136 51.2598H164.931L158.556 33.6484L158.465 33.6666L158.921 44.1387V51.2598H154.131V27.4015ZM201.079 37.0723V40.7694H191.19V47.5809H202.755V51.2598H186.4V27.4015H202.718V31.0804H191.19V37.0723H201.079ZM213.443 27.4015V47.5809H224.061V51.2598H208.653V27.4015H213.443ZM243.8 41.5161V37.1816C243.8 35.2875 243.332 33.7576 242.397 32.592C241.463 31.4143 240.188 30.8254 238.573 30.8254C236.958 30.8254 235.695 31.4082 234.785 32.5738C233.886 33.7273 233.437 35.2632 233.437 37.1816V41.5161C233.437 43.4466 233.892 45.0008 234.803 46.1785C235.726 47.3441 236.988 47.9269 238.591 47.9269C240.206 47.9269 241.475 47.3441 242.397 46.1785C243.332 45.0008 243.8 43.4466 243.8 41.5161ZM248.571 37.218V41.5161C248.571 44.4787 247.643 46.907 245.785 48.8011C243.939 50.6952 241.535 51.6422 238.573 51.6422C236.63 51.6422 234.906 51.2112 233.401 50.3491C231.895 49.4749 230.729 48.2729 229.904 46.7431C229.078 45.2011 228.665 43.4588 228.665 41.5161V37.218C228.665 34.2676 229.582 31.8453 231.415 29.9513C233.249 28.045 235.635 27.0919 238.573 27.0919C241.523 27.0919 243.927 28.045 245.785 29.9513C247.643 31.8453 248.571 34.2676 248.571 37.218ZM271.808 27.4015V31.0804H265.051V51.2598H260.261V31.0804H253.541V27.4015H271.808Z" fill="#161616"/>
<path fill-rule="evenodd" clip-rule="evenodd" d="M40.7234 0.271905C30.7774 0.52305 10.017 2.69801 2.24817 9.60361C-7.0353 17.8556 14.17 70.6308 34.0764 80.7404V45.874C29.8224 46.6726 25.514 48.3762 21.4347 51.3756C20.1156 49.6168 17.5872 46.6121 16.488 45.3296C18.2914 43.3622 24.6135 39.6343 36.3207 38.8721L37.3368 17.5339C36.0156 16.4248 35.1756 14.761 35.1756 12.901C35.1756 9.56184 37.8825 6.85495 41.2217 6.85495C44.5608 6.85495 47.2677 9.56184 47.2677 12.901C47.2677 14.761 46.4278 16.4248 45.1065 17.5339L46.1264 38.9509C57.304 39.8624 63.8897 43.4229 65.9554 45.3296L61.5583 51.3756C58.6502 49.5114 53.9393 47.3438 48.367 46.1696V80.5058C68.1417 69.8419 88.9611 17.7937 79.7472 9.60361C71.9784 2.69801 51.218 0.52305 41.272 0.271905L41.2725 0.259766C41.1819 0.261475 41.0903 0.263353 40.9977 0.265403C40.9051 0.263353 40.8135 0.261475 40.7229 0.259766L40.7234 0.271905Z" fill="#FFB01B"/>
</svg>
