<svg width="36" height="36" viewBox="0 0 36 36" fill="none" xmlns="http://www.w3.org/2000/svg">
<rect width="36" height="36" fill="#8B9BFF"/>
<path d="M24.6694 24.67L26.8894 23.56V20.78M20.2194 15.78L17.9994 16.89L20.2194 15.78ZM17.9994 16.89L15.7794 15.78L17.9994 16.89ZM17.9994 16.89V19.67V16.89ZM26.8894 12.44L24.6694 13.55L26.8894 12.44ZM26.8894 12.44L24.6694 11.33L26.8894 12.44ZM26.8894 12.44V15.22V12.44ZM20.2194 9.11L17.9994 8L15.7794 9.11H20.2194ZM9.10938 12.44L11.3294 11.33L9.10938 12.44ZM9.10938 12.44L11.3294 13.55L9.10938 12.44ZM9.10938 12.44V15.22V12.44ZM17.9994 28L15.7794 26.89L17.9994 28ZM17.9994 28L20.2194 26.89L17.9994 28ZM17.9994 28V25.22V28ZM11.3294 24.67L9.10938 23.56V20.78L11.3294 24.67Z" stroke="white" stroke-width="1.5" stroke-linecap="round" stroke-linejoin="round"/>
</svg>
