<svg width="135" height="41" viewBox="0 0 135 41" fill="none" xmlns="http://www.w3.org/2000/svg">
<path d="M8.27539 20.4728C5.19627 25.0727 2.13474 28.6494 0.514525 30.053L0.018296 30.4472C5.56555 29.9289 8.86899 28.2455 11.7004 26.0165C14.2667 30.6002 16.4278 35.6544 17.1948 40.4032C17.1948 40.4032 17.2683 40.4038 17.2683 40.4032C18.0446 35.671 20.2134 30.6169 22.7813 26.028C25.5889 28.2384 28.8695 29.9078 34.3827 30.4248L34.401 30.4282C32.9853 29.4348 29.5813 25.6318 26.1485 20.5601C29.5915 15.4367 33.0074 11.5802 34.401 10.5749C28.8086 11.0969 25.5385 12.7876 22.7264 15.0292C20.1487 10.4332 17.9757 5.36076 17.206 0.595974C17.206 0.595974 17.1325 0.595364 17.1325 0.595974C16.3571 5.32336 14.2021 10.3777 11.6477 14.9691C8.82986 12.7551 5.54176 11.0888 0 10.571C1.41875 11.5667 4.83472 15.3841 8.27539 20.4728ZM4.1967 27.4581C5.61098 25.876 7.25986 23.7726 8.94594 21.4806C9.63773 22.5373 10.3254 23.6412 10.9927 24.7802C8.9437 26.0256 6.59612 27.1016 4.1967 27.4581ZM30.1762 27.4238C27.8173 27.0587 25.51 26.0026 23.4942 24.7826C24.1273 23.7012 24.7781 22.6514 25.433 21.6432C27.0559 23.8222 28.6692 25.8187 30.1762 27.4238ZM30.1525 13.5989C28.75 15.1742 27.1205 17.2547 25.455 19.5186C24.7748 18.4796 24.0987 17.3947 23.442 16.2761C25.4593 15.0487 27.7771 13.9785 30.1525 13.5989ZM12.1459 16.981C12.8811 17.4743 13.5645 17.9758 14.1822 18.455C14.0997 18.2083 14.0333 17.955 13.9681 17.7038C13.8813 17.3697 13.7914 17.0295 13.6653 16.6921C13.3928 16.4446 13.1202 16.1999 12.8451 15.9613C14.4686 13.5792 15.9748 11.2688 17.1652 9.36393C18.4817 11.477 19.956 13.7757 21.4968 16.0634C21.2252 16.3025 20.9555 16.5474 20.6858 16.7949C20.5792 17.0981 20.4996 17.4029 20.4216 17.7029C20.3478 17.9865 20.2729 18.273 20.1747 18.5493C20.7833 18.0748 21.4587 17.5754 22.188 17.082C23.0037 18.2754 23.8339 19.4578 24.6659 20.601C23.8607 21.7152 23.0544 22.8599 22.2681 23.9995C21.6175 23.5623 21.0089 23.1193 20.4499 22.6912C19.8912 22.7164 19.3299 22.7027 18.8044 22.4773C19.7468 23.3611 20.6453 24.2171 21.5679 25.0203C19.9399 27.4086 18.4291 29.726 17.2357 31.6355C15.9291 29.5382 14.4671 27.2582 12.9387 24.9875C13.8774 24.1699 14.7928 23.298 15.7544 22.3981C15.2053 22.6876 14.6116 22.7177 14.0188 22.6951C13.4733 23.1135 12.8816 23.5456 12.2506 23.9723C11.4227 22.7603 10.5798 21.559 9.73511 20.3982C10.5446 19.2778 11.3553 18.1268 12.1459 16.981ZM10.9405 16.212C10.3041 17.3056 9.64932 18.367 8.99026 19.386C7.3553 17.1894 5.7297 15.1772 4.21225 13.5624C6.59297 13.9261 8.91453 14.9865 10.9405 16.212Z" fill="#21294D"/>
<mask id="mask0_212_33" style="mask-type:luminance" maskUnits="userSpaceOnUse" x="13" y="13" width="8" height="15">
<path d="M17.16 27.839C17.16 27.839 13.6228 24.537 13.6228 20.4684C13.6228 16.3997 17.16 13.0977 17.16 13.0977C17.16 13.0977 20.6973 16.3997 20.6973 20.4684C20.6973 24.537 17.16 27.839 17.16 27.839Z" fill="white"/>
</mask>
<g mask="url(#mask0_212_33)">
<path d="M9.9453 20.4697C9.9453 24.4538 13.1751 27.6836 17.1592 27.6836C21.1433 27.6836 24.373 24.4538 24.373 20.4697C24.373 16.4856 21.1433 13.2559 17.1592 13.2559C13.1751 13.2559 9.9453 16.4856 9.9453 20.4697Z" stroke="#21294D" stroke-width="5.22744" stroke-miterlimit="10"/>
</g>
<path d="M17.1274 17.1641L17.7001 19.1707L19.7242 18.6633L18.2728 20.1626L19.7242 21.6618L17.7001 21.1545L17.1274 23.1611L16.5548 21.1545L14.5306 21.6618L15.9821 20.1626L14.5306 18.6633L16.5548 19.1707L17.1274 17.1641Z" fill="#21294D"/>
<path d="M42.1797 16.8979C43.0214 17.4178 44.878 17.95 46.6727 17.95C49.2967 17.95 52.0321 17.2074 52.0321 15.128C52.0321 12.9743 49.4081 12.3306 47.2173 11.8974C46.2519 11.7242 44.1106 11.3157 44.1106 10.5359C44.1106 9.44671 45.6454 8.96399 47.3411 8.96399C48.5046 8.96399 50.7573 9.13727 51.1162 10.6968H51.2524V8.75357H51.1162C50.9801 8.84021 50.8687 8.87734 50.7449 8.9021C49.928 8.49364 48.6407 8.24609 47.3782 8.24609C44.9522 8.24609 42.4767 9.05063 42.4767 10.8082C42.4767 12.6896 44.9027 13.1228 47.0688 13.556C48.814 13.9026 50.3983 14.2368 50.3983 15.3631C50.3983 16.6504 48.5417 17.2074 46.8089 17.2074C45.2617 17.2074 42.8109 16.7618 42.3282 15.0661H42.1797V16.8979Z" fill="#21294D"/>
<path d="M63.0692 10.0161H54.4422L54.2441 11.6994H54.3926C54.5536 11.3033 54.962 10.7711 55.4571 10.7711H57.9573V16.6875C57.9573 17.2321 57.6479 17.4302 57.1652 17.5539V17.6901H60.3338V17.5539C59.8635 17.4302 59.5417 17.2321 59.5417 16.6875V10.7711H62.0419C62.537 10.7711 62.9455 11.3033 63.1187 11.6994H63.2549L63.0692 10.0161Z" fill="#21294D"/>
<path d="M72.5115 16.6009C72.8457 17.1455 72.2268 17.4302 71.7688 17.5539V17.6901H75.6801V17.5539C75.3088 17.4673 74.8137 17.3435 74.3062 16.5018L70.3578 10.0161H67.9318V10.1522C68.2908 10.2265 68.6373 10.375 68.7983 10.6349L65.2335 16.44C64.7508 17.2321 64.132 17.492 63.8349 17.5539V17.6901H66.9788V17.5539C66.4713 17.4178 65.9514 17.1455 66.2609 16.638L67.1644 15.1527H71.6327L72.5115 16.6009ZM69.4295 11.39L71.2119 14.4348H67.5976L69.4295 11.39Z" fill="#21294D"/>
<path d="M78.5098 16.6009C78.5098 17.2197 78.2375 17.4178 77.7424 17.5539V17.6901H80.8863V17.5539C80.3912 17.4178 80.1189 17.2197 80.1189 16.6009V11.0682C80.1189 10.734 80.3293 10.7216 80.614 10.7216H82.9657C84.1292 10.7216 84.6614 11.4023 84.6614 12.0955C84.6614 12.8134 84.1292 13.5065 82.9657 13.5065H80.6016V13.7417L84.9832 17.6901H87.3844V17.5416C87.1493 17.492 86.7532 17.3064 86.06 16.7246L83.2132 14.1996C85.3917 14.1873 86.518 13.2837 86.518 12.0955C86.518 10.9196 85.4288 10.0161 83.2256 10.0161H77.7424V10.1522C78.2375 10.2884 78.5098 10.4864 78.5098 11.1177V16.6009Z" fill="#21294D"/>
<path d="M92.6649 10.7216H96.9227C97.554 10.7216 97.7891 11.2291 97.8263 11.588H97.9624L98.1852 9.89229H98.0119C97.9376 9.95418 97.8634 9.99131 97.7644 10.0161H90.276V10.1522C90.7835 10.2884 91.0434 10.4864 91.0434 11.1177V16.8237C90.9815 17.2692 90.7092 17.4425 90.2884 17.5539V17.6901H93.457V17.5539C92.9495 17.4178 92.6649 17.2197 92.6649 16.6009V14.2368H95.6973C96.2172 14.2368 96.5266 14.5957 96.6009 15.0042H96.737V12.7762H96.6133C96.4895 13.1847 96.1924 13.5436 95.685 13.5436H92.6649V10.7216Z" fill="#21294D"/>
<path d="M100.55 13.9645C100.55 16.4276 103.211 17.8757 105.996 17.8757C108.868 17.8757 111.616 16.3533 111.616 13.7541C111.616 11.2043 108.942 9.83041 106.145 9.83041C103.261 9.83041 100.55 11.39 100.55 13.9645ZM102.407 13.7541C102.407 11.8232 103.929 10.5235 105.971 10.5235C108.1 10.5235 109.759 11.9346 109.759 13.9645C109.759 15.8954 108.187 17.195 106.145 17.195C104.028 17.195 102.407 15.784 102.407 13.7541Z" fill="#21294D"/>
<path d="M115.337 16.6009C115.337 17.2197 115.065 17.4178 114.57 17.5539V17.6901H117.714V17.5539C117.218 17.4178 116.946 17.2197 116.946 16.6009V11.0682C116.946 10.734 117.157 10.7216 117.441 10.7216H119.793C120.956 10.7216 121.489 11.4023 121.489 12.0955C121.489 12.8134 120.956 13.5065 119.793 13.5065H117.429V13.7417L121.81 17.6901H124.212V17.5416C123.977 17.492 123.58 17.3064 122.887 16.7246L120.04 14.1996C122.219 14.1873 123.345 13.2837 123.345 12.0955C123.345 10.9196 122.256 10.0161 120.053 10.0161H114.57V10.1522C115.065 10.2884 115.337 10.4864 115.337 11.1177V16.6009Z" fill="#21294D"/>
<path d="M134.814 10.0161H126.187L125.989 11.6994H126.137C126.298 11.3033 126.707 10.7711 127.202 10.7711H129.702V16.6875C129.702 17.2321 129.393 17.4302 128.91 17.5539V17.6901H132.079V17.5539C131.608 17.4302 131.286 17.2321 131.286 16.6875V10.7711H133.787C134.282 10.7711 134.69 11.3033 134.863 11.6994H135L134.814 10.0161Z" fill="#21294D"/>
<path d="M50.7201 24.0659C51.4133 24.0659 51.537 24.8581 51.5742 25.2294H51.7103L51.9579 23.2242H51.8217C51.7475 23.2985 51.6732 23.3233 51.5618 23.348H42.3777V23.4842C42.9966 23.6575 43.306 23.8431 43.306 24.6229V31.3067C43.306 32.0494 42.9966 32.2474 42.3777 32.4207V32.5568H51.797L52.3168 30.5641H52.1683C51.9579 31.0963 51.3761 31.8513 50.3364 31.8513H45.435C45.2122 31.8513 45.0141 31.7399 45.0141 31.5171V28.2H49.0368C49.5443 28.2 49.6804 28.6951 49.7423 29.1035H49.8908L50.126 26.5043H49.9651C49.8289 27.0736 49.6185 27.4697 49.0368 27.4697H45.0141V24.0659H50.7201Z" fill="#21294D"/>
<path d="M62.2735 25.7492C62.5953 25.4769 62.9419 25.0932 63.4246 25.019V24.8828H60.8501V25.019C61.1472 25.118 61.5432 25.2046 61.2585 25.4646L58.6593 27.8534L56.3323 25.4893C56.0476 25.1799 56.4313 25.118 56.7284 25.019V24.8828H53.3741V25.019C53.7454 25.0809 54.2405 25.4769 54.5005 25.7121L57.5701 28.8312L54.3891 31.7028C54.0796 31.9627 53.7083 32.3588 53.2256 32.4207V32.5568H55.8125V32.4207C55.5649 32.3464 55.0698 32.2722 55.4164 31.938L58.1766 29.4253L60.5407 31.8637C60.5654 31.8885 60.6025 31.9132 60.6273 31.9503C60.9367 32.2598 60.5283 32.3464 60.2436 32.4207V32.5568H63.6722V32.4207C63.1771 32.3588 62.8057 31.9751 62.4839 31.7028L59.2534 28.4475L62.2735 25.7492Z" fill="#21294D"/>
<path d="M65.9921 28.6951C65.9921 26.4919 68.0591 25.4027 70.089 25.4027C71.5371 25.4027 73.0101 25.8606 73.3443 26.9499H73.4928L73.6166 25.1675H73.4804C73.4061 25.217 73.3195 25.2541 73.2452 25.2789C72.2798 24.9323 71.0544 24.6972 69.8291 24.6972C66.0539 24.6972 64.1478 26.6776 64.1478 28.7198C64.1478 30.7869 66.0539 32.7425 69.8291 32.7425C71.1906 32.7425 72.5397 32.4083 73.5547 31.9256L73.7775 30.3041H73.6289C73.0596 31.4552 71.5495 32.0494 70.089 32.0494C68.0591 32.0494 65.9921 30.9601 65.9921 28.6951Z" fill="#21294D"/>
<path d="M83.6295 24.8828V25.019C84.137 25.1551 84.4217 25.3532 84.4217 25.9844V28.299H78.3691V25.9844C78.3691 25.3532 78.6414 25.1551 79.1489 25.019V24.8828H75.9926V25.019C76.5001 25.1551 76.76 25.3532 76.76 25.9844V31.5543C76.76 32.0989 76.463 32.2969 75.9926 32.4207V32.5568H79.1489V32.4207C78.6785 32.2969 78.3691 32.0989 78.3691 31.5543V29.0045H84.4217V31.5543C84.4217 32.0989 84.1122 32.2969 83.6295 32.4207V32.5568H86.7981V32.4207C86.3154 32.2969 86.0184 32.0989 86.0184 31.5543V25.9844C86.0184 25.3532 86.3031 25.1551 86.7981 25.019V24.8828H83.6295Z" fill="#21294D"/>
<path d="M96.5551 31.4676C96.8893 32.0122 96.2705 32.2969 95.8125 32.4207V32.5568H99.7238V32.4207C99.3524 32.334 98.8573 32.2103 98.3499 31.3686L94.4015 24.8828H91.9755V25.019C92.3344 25.0932 92.681 25.2418 92.8419 25.5017L89.2772 31.3067C88.7945 32.0989 88.1756 32.3588 87.8786 32.4207V32.5568H91.0224V32.4207C90.515 32.2845 89.9951 32.0122 90.3045 31.5048L91.2081 30.0195H95.6763L96.5551 31.4676ZM93.4732 26.2567L95.2555 29.3016H91.6413L93.4732 26.2567Z" fill="#21294D"/>
<path d="M110.735 25.8854C110.735 25.3408 111.032 25.1551 111.515 25.019V24.8828H108.891V25.019C109.361 25.1551 109.683 25.3408 109.683 25.8854V30.5888L103.086 24.8828H100.684V25.019C101.142 25.1551 101.427 25.3408 101.464 25.8483V31.5543C101.464 32.0989 101.167 32.2969 100.684 32.4083V32.5568H103.308V32.4207C102.838 32.2969 102.541 32.0989 102.541 31.5543V26.4176L109.609 32.5568H110.735V25.8854Z" fill="#21294D"/>
<path d="M122.85 30.4279C122.85 29.7967 123.135 29.5986 123.642 29.4749V29.3263H120.474V29.4749C120.882 29.5739 121.241 29.809 121.241 30.4403V31.5666C120.523 31.8885 119.793 32.0122 119.075 32.0122C117.07 32.0122 115.151 30.923 115.151 28.6951C115.151 26.4919 117.218 25.4027 119.248 25.4027C120.696 25.4027 122.367 25.8606 122.702 26.9499H122.85L122.961 25.1427H122.825C122.739 25.2046 122.615 25.2418 122.516 25.2665C121.563 24.92 120.189 24.6972 118.988 24.6972C115.213 24.6972 113.307 26.6776 113.307 28.7198C113.307 31.1458 116.018 32.7549 119.001 32.7549C120.375 32.7549 121.674 32.4454 122.85 31.8142V30.4279Z" fill="#21294D"/>
<path d="M128.194 25.5883H132.291C133.306 25.5883 133.517 26.2196 133.554 26.5909H133.702L133.925 24.759H133.777C133.702 24.8333 133.616 24.8581 133.504 24.8828H125.768V25.019C126.263 25.1551 126.536 25.3532 126.536 25.9844V31.4676C126.536 32.0865 126.263 32.2845 125.768 32.4207V32.5568H133.826L134.272 30.7869H134.123C133.913 31.3191 133.281 31.8513 132.564 31.8513H128.442C128.306 31.8389 128.219 31.7771 128.194 31.6162V28.9798H131.338C131.846 28.9798 131.994 29.3511 132.056 29.7595H132.205L132.39 27.5068H132.254C132.155 27.9277 131.833 28.2742 131.338 28.2742H128.194V25.5883Z" fill="#21294D"/>
</svg>
