<svg width="220" height="261" viewBox="0 0 220 261" fill="none" xmlns="http://www.w3.org/2000/svg">
<path d="M8.68988 228.824C10.2799 229.806 13.7873 230.811 17.1778 230.811C22.1349 230.811 27.3025 229.408 27.3025 225.48C27.3025 221.412 22.3454 220.196 18.2066 219.377C16.3828 219.05 12.3376 218.278 12.3376 216.805C12.3376 214.747 15.237 213.836 18.4404 213.836C20.6384 213.836 24.8941 214.163 25.5722 217.109H25.8294V213.438H25.5722C25.3149 213.602 25.1045 213.672 24.8707 213.719C23.3274 212.947 20.8956 212.479 18.5106 212.479C13.9276 212.479 9.25106 213.999 9.25106 217.32C9.25106 220.874 13.8341 221.692 17.926 222.511C21.223 223.165 24.216 223.797 24.216 225.924C24.216 228.356 20.7086 229.408 17.435 229.408C14.5122 229.408 9.88239 228.567 8.97047 225.363H8.68988V228.824ZM43.7805 228.146V214.397H49.6495C51.1928 214.397 52.245 215.542 52.7594 216.641H53.0166L52.5724 212.924H31.9255L31.4812 216.641H31.7384C32.2762 215.542 33.3051 214.397 34.8483 214.397H40.7174V228.146C40.7174 229.408 40.0159 229.759 38.9403 230.063V230.32H45.581V230.063C44.482 229.759 43.7805 229.408 43.7805 228.146ZM74.3239 228.496C74.4642 229.362 73.3418 229.783 72.4533 230.063V230.32H80.8243V230.063C80.0527 229.829 78.7198 229.455 77.7144 227.795L68.6653 212.924H63.638V213.181C64.3629 213.321 65.2047 213.532 65.5554 214.069L57.2546 227.631C56.0153 229.595 54.8929 229.853 54.0979 230.063V230.32H60.8321V230.063C59.6864 229.712 58.4705 229.245 59.2187 227.959L61.5336 224.171H71.8921L73.9966 227.701C74.1836 228.029 74.3005 228.263 74.3239 228.496ZM66.7947 215.449L71.0737 222.768H62.3754L66.7947 215.449ZM86.4862 227.959C86.4862 229.362 85.8782 229.736 84.7325 230.063V230.32H91.3732V230.063C90.1806 229.736 89.5961 229.362 89.5961 227.959V215.215C89.5961 214.303 90.1806 214.28 91.0224 214.28H96.4472C99.2765 214.28 100.633 215.893 100.633 217.577C100.633 219.284 99.2765 220.944 96.4472 220.944H91.2095V221.295L101.264 230.32H106.291V230.063C105.683 229.853 104.771 229.502 103.368 228.333L96.5641 222.277C101.685 222.277 104.304 220.383 104.304 217.577C104.304 214.958 101.895 212.924 97.0318 212.924H84.7325V213.181C85.8782 213.508 86.4862 213.859 86.4862 215.332V227.959ZM123.875 222.37C125.278 222.37 125.465 223.118 125.769 224.101H126.073V219.19H125.793C125.442 220.383 125.115 221.014 123.782 221.014H116.814V214.28H126.845C128.201 214.28 128.411 215.753 128.482 216.454H128.739L129.183 212.69H128.926C128.762 212.83 128.622 212.877 128.411 212.924H111.927V213.181C113.119 213.532 113.68 213.836 113.68 215.309V228.052C113.68 229.525 112.932 229.736 111.95 230.04V230.32H118.661V230.063C117.445 229.712 116.814 229.338 116.814 227.959V222.37H123.875ZM133.185 221.879C133.185 227.468 139.171 230.741 145.415 230.741C151.868 230.741 158.041 227.281 158.041 221.388C158.041 215.589 152.032 212.479 145.765 212.479C139.288 212.479 133.185 216.01 133.185 221.879ZM136.856 221.388C136.856 216.875 140.504 213.836 145.368 213.836C150.442 213.836 154.37 217.132 154.37 221.879C154.37 226.392 150.629 229.408 145.765 229.408C140.715 229.408 136.856 226.135 136.856 221.388ZM165.374 227.959C165.374 229.362 164.766 229.736 163.621 230.063V230.32H170.261V230.063C169.069 229.736 168.484 229.362 168.484 227.959V215.215C168.484 214.303 169.069 214.28 169.911 214.28H175.335C178.165 214.28 179.521 215.893 179.521 217.577C179.521 219.284 178.165 220.944 175.335 220.944H170.098V221.295L180.152 230.32H185.179V230.063C184.572 229.853 183.66 229.502 182.257 228.333L175.452 222.277C180.573 222.277 183.192 220.383 183.192 217.577C183.192 214.958 180.784 212.924 175.92 212.924H163.621V213.181C164.766 213.508 165.374 213.859 165.374 215.332V227.959ZM201.009 228.146V214.397H206.878C208.421 214.397 209.473 215.542 209.988 216.641H210.245L209.801 212.924H189.154L188.71 216.641H188.967C189.505 215.542 190.533 214.397 192.077 214.397H197.946V228.146C197.946 229.408 197.244 229.759 196.169 230.063V230.32H202.809V230.063C201.71 229.759 201.009 229.408 201.009 228.146ZM26.2095 242.28C27.5189 242.28 27.7528 243.776 27.8229 244.478H28.0801L28.5478 240.69H28.2906C28.1503 240.83 28.01 240.877 27.7995 240.924H10.4496V241.181C11.6187 241.508 12.2033 241.859 12.2033 243.332V255.959C12.2033 257.362 11.6187 257.736 10.4496 258.063V258.32H28.2438L29.2259 254.556H28.9453C28.5478 255.561 27.4488 256.988 25.4847 256.988H16.2251C15.8042 256.988 15.4301 256.777 15.4301 256.356V250.09H23.0295C23.9882 250.09 24.2454 251.025 24.3623 251.797H24.6429L25.0871 246.886H24.7832C24.526 247.962 24.1285 248.71 23.0295 248.71H15.4301V242.28H26.2095ZM51.3557 242.701C52.3612 241.836 53.0393 241.415 53.8811 241.181V240.924H48.5732V241.181C49.0876 241.274 50.0463 241.555 49.5319 242.14L43.242 247.915L37.56 242.163C36.9988 241.438 37.9575 241.274 38.5187 241.181V240.924H31.3869V241.181C32.2989 241.415 33.3277 242.069 33.8655 242.584L40.9972 249.879L34.1929 256.005C32.5327 257.455 31.8078 257.853 30.9427 258.063V258.32H36.3908V258.063C35.6426 257.899 34.7307 257.759 35.7829 256.684L42.143 250.955L47.8016 256.707C48.6667 257.595 47.7782 257.923 47.1702 258.063V258.32H54.4423V258.063C53.3433 257.806 52.4547 257.221 51.2622 256.052L44.2708 248.991L51.3557 242.701ZM58.3979 249.575C58.3979 244.431 63.2849 241.859 68.1251 241.859C71.3753 241.859 74.6957 243.005 75.5842 245.39H75.8414L76.122 241.695H75.8648C75.7479 241.812 75.5608 241.882 75.4439 241.906C73.1056 241.064 70.2763 240.479 67.5406 240.479C59.0293 240.479 54.7502 244.992 54.7502 249.622C54.7502 254.298 59.0293 258.741 67.5406 258.741C70.5335 258.741 73.4798 258.04 76.122 256.847L76.5429 253.387H76.2623C74.719 256.403 71.1883 257.385 68.1251 257.385C63.2849 257.385 58.3979 254.836 58.3979 249.575ZM98.3184 240.924V241.181C99.4875 241.532 100.119 241.882 100.119 243.332V248.78H85.5982V243.332C85.5982 241.906 86.2763 241.508 87.3986 241.181V240.924H80.7346V241.181C81.9271 241.532 82.4883 241.859 82.4883 243.332V256.146C82.4883 257.385 81.8102 257.759 80.7346 258.063V258.32H87.3986V258.063C86.2997 257.759 85.5982 257.408 85.5982 256.146V250.16H100.119V256.146C100.119 257.362 99.3706 257.759 98.3184 258.063V258.32H105.006V258.063C103.907 257.759 103.205 257.362 103.205 256.146V243.332C103.205 241.882 103.813 241.532 105.006 241.181V240.924H98.3184ZM127.274 256.496C127.414 257.362 126.292 257.783 125.403 258.063V258.32H133.774V258.063C133.003 257.829 131.67 257.455 130.664 255.795L121.615 240.924H116.588V241.181C117.313 241.321 118.155 241.532 118.505 242.069L110.204 255.631C108.965 257.595 107.843 257.853 107.048 258.063V258.32H113.782V258.063C112.636 257.712 111.42 257.245 112.169 255.959L114.483 252.171H124.842L126.946 255.701C127.133 256.029 127.25 256.263 127.274 256.496ZM119.745 243.449L124.024 250.768H115.325L119.745 243.449ZM158.329 243.098C158.329 241.859 159.007 241.532 160.13 241.181V240.924H154.705V241.181C155.781 241.508 156.505 241.812 156.505 243.098V254.415L140.839 240.924H135.812V241.181C136.887 241.532 137.519 241.859 137.589 243.005V256.146C137.589 257.338 136.934 257.759 135.812 258.063V258.32H141.236V258.063C140.184 257.759 139.459 257.362 139.459 256.146V243.8L156.201 258.32H158.329V243.098ZM176.631 240.479C168.12 240.479 163.748 244.992 163.748 249.622C163.748 255.187 170.131 258.741 176.889 258.741C179.414 258.718 182.898 258.063 185.236 256.707V253.55C185.236 252.124 185.938 251.75 187.037 251.422V251.142H180.373V251.422C181.331 251.703 182.126 252.124 182.126 253.527V256.169C180.583 256.964 178.736 257.385 176.865 257.385C172.119 257.385 167.372 254.79 167.372 249.575C167.372 244.431 172.165 241.859 177.006 241.859C179.858 241.859 183.927 242.747 184.956 245.67H185.213L185.353 241.882H185.096C184.932 241.952 184.698 241.999 184.511 242.046C182.267 241.251 179.297 240.479 176.631 240.479ZM206.968 242.28C208.278 242.28 208.512 243.776 208.582 244.478H208.839L209.307 240.69H209.049C208.909 240.83 208.769 240.877 208.558 240.924H191.209V241.181C192.378 241.508 192.962 241.859 192.962 243.332V255.959C192.962 257.362 192.378 257.736 191.209 258.063V258.32H209.003L209.985 254.556H209.704C209.307 255.561 208.208 256.988 206.244 256.988H196.984C196.563 256.988 196.189 256.777 196.189 256.356V250.09H203.788C204.747 250.09 205.004 251.025 205.121 251.797H205.402L205.846 246.886H205.542C205.285 247.962 204.887 248.71 203.788 248.71H196.189V242.28H206.968Z" fill="white"/>
<path d="M65.8343 99.466C50.4263 122.484 35.1062 140.382 26.9985 147.406L24.5154 149.379C52.2741 146.785 68.8048 138.361 82.9733 127.207C95.8153 150.144 106.629 175.436 110.468 199.199C110.468 199.199 110.835 199.202 110.835 199.199C114.72 175.519 125.573 150.228 138.423 127.265C152.472 138.326 168.888 146.679 196.477 149.266L196.568 149.284C189.484 144.312 172.45 125.282 155.272 99.9029C172.501 74.2651 189.595 54.967 196.568 49.9366C168.584 52.5484 152.22 61.0091 138.148 72.226C125.249 49.2276 114.375 23.8446 110.524 0.00135636C110.524 0.00135636 110.156 -0.00169545 110.156 0.00135636C106.276 23.6575 95.4918 48.9498 82.7093 71.9254C68.6089 60.8463 52.1551 52.5083 24.4238 49.9168C31.5234 54.8993 48.617 74.0022 65.8343 99.466ZM45.4243 134.421C52.5015 126.504 60.7526 115.978 69.1898 104.509C72.6516 109.797 76.0925 115.321 79.4317 121.02C69.1786 127.253 57.4312 132.637 45.4243 134.421ZM175.427 134.249C163.623 132.422 152.077 127.138 141.99 121.033C145.158 115.621 148.415 110.368 151.692 105.323C159.813 116.226 167.886 126.217 175.427 134.249ZM175.309 65.0685C168.29 72.9518 160.136 83.3626 151.802 94.6914C148.398 89.4921 145.015 84.063 141.729 78.4654C151.824 72.3237 163.422 66.9682 175.309 65.0685ZM85.2026 81.9928C88.8816 84.4612 92.3011 86.9708 95.3921 89.369C94.9796 88.1346 94.6475 86.8671 94.3209 85.6097C93.8866 83.9378 93.4369 82.2354 92.8057 80.5473C91.4421 79.3087 90.0779 78.0845 88.7015 76.8902C96.8255 64.9703 104.362 53.4085 110.32 43.8767C116.907 54.4507 124.285 65.9535 131.995 77.4014C130.636 78.5977 129.287 79.823 127.937 81.0615C127.403 82.5788 127.005 84.1041 126.615 85.6051C126.245 87.0247 125.871 88.4581 125.379 89.841C128.424 87.4662 131.804 84.9673 135.454 82.4984C139.536 88.4703 143.69 94.3872 147.853 100.108C143.824 105.683 139.789 111.411 135.855 117.114C132.599 114.926 129.554 112.709 126.756 110.567C123.961 110.693 121.152 110.625 118.522 109.497C123.238 113.919 127.734 118.203 132.351 122.222C124.204 134.173 116.644 145.77 110.672 155.325C104.134 144.83 96.8178 133.421 89.17 122.058C93.8672 117.967 98.448 113.603 103.26 109.101C100.512 110.549 97.5411 110.7 94.5747 110.587C91.8449 112.68 88.8841 114.842 85.7265 116.978C81.5837 110.913 77.3656 104.902 73.1388 99.0926C77.1896 93.4864 81.2465 87.7267 85.2026 81.9928ZM79.1707 78.145C75.9862 83.6174 72.7096 88.9286 69.4116 94.0276C61.2302 83.036 53.0956 72.9666 45.5022 64.8859C57.4154 66.7063 69.0326 72.0124 79.1707 78.145Z" fill="white"/>
<mask id="mask0_250_131" style="mask-type:luminance" maskUnits="userSpaceOnUse" x="92" y="62" width="36" height="75">
<path d="M110.276 136.331C110.276 136.331 92.5755 119.808 92.5755 99.4478C92.5755 79.0879 110.276 62.5645 110.276 62.5645C110.276 62.5645 127.977 79.0879 127.977 99.4478C127.977 119.808 110.276 136.331 110.276 136.331Z" fill="white"/>
</mask>
<g mask="url(#mask0_250_131)">
<path d="M74.1797 99.4482C74.1797 119.385 90.3416 135.547 110.278 135.547C130.215 135.547 146.377 119.385 146.377 99.4482C146.377 79.5115 130.215 63.3496 110.278 63.3496C90.3416 63.3496 74.1797 79.5115 74.1797 99.4482Z" stroke="white" stroke-width="29.1502" stroke-miterlimit="10"/>
</g>
<path d="M110.13 82.9082L112.995 92.9495L123.124 90.4106L115.861 97.9129L123.124 105.415L112.995 102.876L110.13 112.918L107.264 102.876L97.1353 105.415L104.398 97.9129L97.1353 90.4106L107.264 92.9495L110.13 82.9082Z" fill="white"/>
</svg>
