<svg width="82" height="81" viewBox="0 0 82 81" fill="none" xmlns="http://www.w3.org/2000/svg">
<rect x="0.5" width="81" height="81" fill="#29387F"/>
<path d="M51.25 41.9766V47.5266C51.25 52.2066 46.885 56.0016 41.5 56.0016C36.115 56.0016 31.75 52.2066 31.75 47.5266V41.9766C31.75 46.6566 36.115 50.0016 41.5 50.0016C46.885 50.0016 51.25 46.6566 51.25 41.9766Z" stroke="white" stroke-width="2.25" stroke-linecap="round" stroke-linejoin="round"/>
<path d="M51.25 34.475C51.25 35.84 50.875 37.1 50.215 38.18C48.61 40.82 45.31 42.5 41.5 42.5C37.69 42.5 34.39 40.82 32.785 38.18C32.125 37.1 31.75 35.84 31.75 34.475C31.75 32.135 32.845 30.02 34.6 28.49C36.37 26.945 38.8 26 41.5 26C44.2 26 46.63 26.945 48.4 28.475C50.155 30.02 51.25 32.135 51.25 34.475Z" stroke="white" stroke-width="2.25" stroke-linecap="round" stroke-linejoin="round"/>
<path d="M51.25 34.475V41.975C51.25 46.655 46.885 50 41.5 50C36.115 50 31.75 46.655 31.75 41.975V34.475C31.75 29.795 36.115 26 41.5 26C44.2 26 46.63 26.945 48.4 28.475C50.155 30.02 51.25 32.135 51.25 34.475Z" stroke="white" stroke-width="2.25" stroke-linecap="round" stroke-linejoin="round"/>
</svg>
