<svg width="82" height="81" viewBox="0 0 82 81" fill="none" xmlns="http://www.w3.org/2000/svg">
<rect x="0.5" width="81" height="81" fill="#29387F"/>
<path d="M42.88 26.3898L52.645 31.6548C53.785 32.2698 53.785 34.0248 52.645 34.6398L42.88 39.9048C42.01 40.3698 40.99 40.3698 40.12 39.9048L30.355 34.6398C29.215 34.0248 29.215 32.2698 30.355 31.6548L40.12 26.3898C40.99 25.9248 42.01 25.9248 42.88 26.3898Z" stroke="white" stroke-width="2.25" stroke-linecap="round" stroke-linejoin="round"/>
<path d="M28.915 38.1955L37.99 42.7405C39.115 43.3105 39.835 44.4655 39.835 45.7255V54.3055C39.835 55.5505 38.53 56.3455 37.42 55.7905L28.345 51.2455C27.22 50.6755 26.5 49.5205 26.5 48.2605V39.6805C26.5 38.4355 27.805 37.6405 28.915 38.1955Z" stroke="white" stroke-width="2.25" stroke-linecap="round" stroke-linejoin="round"/>
<path d="M54.0841 38.1955L45.0091 42.7405C43.8841 43.3105 43.1641 44.4655 43.1641 45.7255V54.3055C43.1641 55.5505 44.4691 56.3455 45.5791 55.7905L54.6541 51.2455C55.7791 50.6755 56.4991 49.5205 56.4991 48.2605V39.6805C56.4991 38.4355 55.1941 37.6405 54.0841 38.1955Z" stroke="white" stroke-width="2.25" stroke-linecap="round" stroke-linejoin="round"/>
</svg>
