<svg width="82" height="82" viewBox="0 0 82 82" fill="none" xmlns="http://www.w3.org/2000/svg">
<rect width="82" height="82" fill="#29387F"/>
<path d="M56 35.75C56 41.135 51.635 45.5 46.25 45.5C45.995 45.5 45.725 45.485 45.47 45.47C45.095 40.715 41.285 36.905 36.53 36.53C36.515 36.275 36.5 36.005 36.5 35.75C36.5 30.365 40.865 26 46.25 26C51.635 26 56 30.365 56 35.75Z" stroke="white" stroke-width="2.25" stroke-linecap="round" stroke-linejoin="round"/>
<path d="M45.5 46.25C45.5 51.635 41.135 56 35.75 56C30.365 56 26 51.635 26 46.25C26 40.865 30.365 36.5 35.75 36.5C36.005 36.5 36.275 36.515 36.53 36.53C41.285 36.905 45.095 40.715 45.47 45.47C45.485 45.725 45.5 45.995 45.5 46.25Z" stroke="white" stroke-width="2.25" stroke-linecap="round" stroke-linejoin="round"/>
<path d="M31.385 26H27.5C26.675 26 26 26.675 26 27.5V31.385C26 32.72 27.62 33.395 28.565 32.45L32.45 28.565C33.38 27.62 32.72 26 31.385 26Z" stroke="white" stroke-width="2.25" stroke-linecap="round" stroke-linejoin="round"/>
<path d="M50.6165 56.0004H54.5015C55.3265 56.0004 56.0015 55.3254 56.0015 54.5004V50.6154C56.0015 49.2804 54.3815 48.6054 53.4365 49.5504L49.5515 53.4354C48.6215 54.3804 49.2815 56.0004 50.6165 56.0004Z" stroke="white" stroke-width="2.25" stroke-linecap="round" stroke-linejoin="round"/>
</svg>
