<svg width="293" height="391" viewBox="0 0 293 391" fill="none" xmlns="http://www.w3.org/2000/svg">
<rect x="0.5" y="0.5" width="292" height="390" fill="#FEFFFF" stroke="#DFE5F7"/>
<path d="M210.545 78.0756C202.06 90.752 193.623 100.609 189.158 104.477L187.791 105.563C203.078 104.135 212.181 99.4957 219.984 93.3528C227.056 105.985 233.012 119.913 235.125 133C235.125 133 235.328 133.001 235.328 133C237.467 119.959 243.444 106.031 250.52 93.3848C258.258 99.4761 267.298 104.077 282.491 105.501L282.542 105.511C278.64 102.773 269.26 92.2929 259.8 78.3163C269.288 64.1973 278.701 53.5697 282.542 50.7994C267.13 52.2377 258.119 56.8971 250.369 63.0744C243.266 50.4089 237.277 36.4303 235.156 23.2996C235.156 23.2996 234.954 23.2979 234.954 23.2996C232.817 36.3272 226.878 50.256 219.839 62.9088C212.073 56.8075 203.012 52.2156 187.74 50.7885C191.65 53.5324 201.064 64.0525 210.545 78.0756ZM199.305 97.3257C203.203 92.9657 207.747 87.1691 212.393 80.8529C214.3 83.765 216.195 86.8072 218.034 89.9459C212.387 93.3781 205.918 96.3433 199.305 97.3257ZM270.899 97.2312C264.399 96.2251 258.04 93.3148 252.485 89.9526C254.23 86.9725 256.023 84.0795 257.828 81.3011C262.3 87.3058 266.746 92.8078 270.899 97.2312ZM270.834 59.1326C266.969 63.4741 262.478 69.2074 257.889 75.4463C256.014 72.583 254.151 69.5931 252.341 66.5105C257.901 63.1281 264.288 60.1789 270.834 59.1326ZM221.212 68.453C223.238 69.8124 225.121 71.1945 226.823 72.5152C226.596 71.8354 226.413 71.1373 226.233 70.4449C225.994 69.5242 225.746 68.5866 225.399 67.657C224.648 66.9749 223.897 66.3007 223.139 65.643C227.612 59.0786 231.763 52.7114 235.044 47.4621C238.672 53.2854 242.735 59.62 246.981 65.9245C246.232 66.5833 245.489 67.2581 244.746 67.9401C244.452 68.7757 244.233 69.6158 244.018 70.4424C243.814 71.2242 243.608 72.0135 243.337 72.7751C245.014 71.4673 246.876 70.0911 248.885 68.7315C251.133 72.0202 253.421 75.2787 255.714 78.4291C253.495 81.4994 251.273 84.654 249.106 87.7946C247.313 86.5896 245.636 85.3689 244.096 84.189C242.556 84.2585 241.009 84.221 239.561 83.5997C242.158 86.0353 244.634 88.3943 247.177 90.6078C242.69 97.1892 238.527 103.575 235.238 108.838C231.637 103.058 227.608 96.7749 223.397 90.5173C225.983 88.2641 228.506 85.8613 231.156 83.3815C229.643 84.1792 228.007 84.2622 226.373 84.2C224.87 85.3529 223.239 86.5437 221.5 87.7196C219.219 84.3795 216.896 81.0692 214.568 77.87C216.799 74.7827 219.033 71.6107 221.212 68.453ZM217.89 66.334C216.136 69.3477 214.332 72.2726 212.515 75.0807C208.01 69.0275 203.53 63.4822 199.348 59.0321C205.909 60.0346 212.307 62.9567 217.89 66.334Z" fill="#797979"/>
<mask id="mask0_248_188" style="mask-type:luminance" maskUnits="userSpaceOnUse" x="225" y="57" width="20" height="42">
<path d="M235.028 98.376C235.028 98.376 225.28 89.2764 225.28 78.064C225.28 66.8515 235.028 57.752 235.028 57.752C235.028 57.752 244.775 66.8515 244.775 78.064C244.775 89.2764 235.028 98.376 235.028 98.376Z" fill="white"/>
</mask>
<g mask="url(#mask0_248_188)">
<path d="M215.147 78.0673C215.147 89.0467 224.047 97.9472 235.026 97.9472C246.006 97.9472 254.906 89.0467 254.906 78.0674C254.906 67.088 246.006 58.1875 235.026 58.1875C224.047 58.1875 215.147 67.088 215.147 78.0673Z" stroke="#797979" stroke-width="5.22744" stroke-miterlimit="10"/>
</g>
<path d="M234.939 68.957L236.517 74.4869L242.095 73.0887L238.095 77.2203L242.095 81.3519L236.517 79.9537L234.939 85.4835L233.361 79.9537L227.783 81.3519L231.783 77.2203L227.783 73.0887L233.361 74.4869L234.939 68.957Z" fill="#797979"/>
</svg>
