<svg width="51" height="50" viewBox="0 0 51 50" fill="none" xmlns="http://www.w3.org/2000/svg">
<rect x="1.19444" y="0.694444" width="48.6111" height="48.6111" stroke="#29387F" stroke-width="1.38889"/>
<path d="M29.5066 22.3301H22.8398V28.9967H29.5066V22.3301Z" stroke="#29387F" stroke-width="2.08333" stroke-linecap="round" stroke-linejoin="round"/>
<path d="M20.3359 33.9981C21.7109 33.9981 22.8359 32.8731 22.8359 31.4981V28.998H20.3359C18.9609 28.998 17.8359 30.1231 17.8359 31.4981C17.8359 32.8731 18.9609 33.9981 20.3359 33.9981Z" stroke="#29387F" stroke-width="2.08333" stroke-linecap="round" stroke-linejoin="round"/>
<path d="M20.3359 22.332H22.8359V19.832C22.8359 18.457 21.7109 17.332 20.3359 17.332C18.9609 17.332 17.8359 18.457 17.8359 19.832C17.8359 21.207 18.9609 22.332 20.3359 22.332Z" stroke="#29387F" stroke-width="2.08333" stroke-linecap="round" stroke-linejoin="round"/>
<path d="M29.5 22.332H32C33.375 22.332 34.5 21.207 34.5 19.832C34.5 18.457 33.375 17.332 32 17.332C30.625 17.332 29.5 18.457 29.5 19.832V22.332Z" stroke="#29387F" stroke-width="2.08333" stroke-linecap="round" stroke-linejoin="round"/>
<path d="M32 33.9981C33.375 33.9981 34.5 32.8731 34.5 31.4981C34.5 30.1231 33.375 28.998 32 28.998H29.5V31.4981C29.5 32.8731 30.625 33.9981 32 33.9981Z" stroke="#29387F" stroke-width="2.08333" stroke-linecap="round" stroke-linejoin="round"/>
<path d="M22.0035 39.5532H30.3368C37.2813 39.5532 40.059 36.7754 40.059 29.8309V21.4976C40.059 14.5532 37.2813 11.7754 30.3368 11.7754H22.0035C15.059 11.7754 12.2812 14.5532 12.2812 21.4976V29.8309C12.2812 36.7754 15.059 39.5532 22.0035 39.5532Z" stroke="#29387F" stroke-width="2.08333" stroke-linecap="round" stroke-linejoin="round"/>
</svg>
