<svg width="96" height="110" viewBox="0 0 96 110" fill="none" xmlns="http://www.w3.org/2000/svg">
<path d="M23.5454 55.0756C15.06 67.752 6.62311 77.6085 2.15815 81.4766L0.790654 82.5631C16.0777 81.1346 25.1812 76.4957 32.984 70.3528C40.0562 82.9847 46.0116 96.9129 48.1253 110C48.1253 110 48.3278 110.001 48.3278 110C50.4673 96.9585 56.444 83.0306 63.5205 70.3848C71.2577 76.476 80.2982 81.0766 95.4914 82.5012L95.5418 82.5107C91.6404 79.7729 82.2598 69.2929 72.7997 55.3163C82.2878 41.1973 91.7015 30.5697 95.5418 27.7994C80.1304 29.2377 71.1187 33.8971 63.3692 40.0744C56.2656 27.4089 50.2774 13.4303 48.1561 0.299575C48.1561 0.299575 47.9536 0.297894 47.9536 0.299575C45.8169 13.3272 39.878 27.256 32.8386 39.9088C25.0734 33.8075 16.0121 29.2156 0.740234 27.7884C4.65001 30.5324 14.0637 41.0525 23.5454 55.0756ZM12.3054 74.3256C16.2029 69.9657 20.7468 64.1691 25.3933 57.8529C27.2997 60.765 29.1947 63.8072 31.0336 66.9459C25.3871 70.3781 18.9177 73.3433 12.3054 74.3256ZM83.8993 74.2313C77.3985 73.2251 71.0403 70.3148 65.4851 66.9526C67.2297 63.9725 69.0232 61.0795 70.828 58.3011C75.3005 64.3058 79.7464 69.8078 83.8993 74.2313ZM83.834 36.1326C79.9688 40.4741 75.4784 46.2074 70.8888 52.4463C69.0143 49.583 67.151 46.5931 65.3412 43.5105C70.9005 40.1281 77.2879 37.1789 83.834 36.1326ZM34.2117 45.453C36.2377 46.8124 38.1209 48.1945 39.8231 49.5152C39.596 48.8354 39.4131 48.1373 39.2332 47.4449C38.994 46.5242 38.7464 45.5866 38.3988 44.657C37.6478 43.9749 36.8966 43.3007 36.1386 42.643C40.6125 36.0786 44.7632 29.7114 48.0438 24.4621C51.6718 30.2853 55.7345 36.62 59.9807 42.9245C59.2323 43.5833 58.4891 44.2581 57.7457 44.9401C57.4519 45.7757 57.2325 46.6158 57.0177 47.4424C56.8143 48.2242 56.6079 49.0135 56.3373 49.7751C58.0143 48.4673 59.8757 47.0911 61.8855 45.7315C64.1333 49.0202 66.4213 52.2787 68.714 55.4291C66.4952 58.4994 64.2731 61.654 62.1062 64.7946C60.3132 63.5896 58.6362 62.3689 57.0956 61.189C55.5561 61.2585 54.0093 61.221 52.5612 60.5997C55.1581 63.0353 57.6342 65.3943 60.1765 67.6078C55.6903 74.1892 51.5267 80.5755 48.2379 85.8376C44.6374 80.0581 40.6083 73.7749 36.3966 67.5173C38.9834 65.2641 41.506 62.8613 44.1559 60.3815C42.6427 61.1792 41.0066 61.2622 39.373 61.2C37.8697 62.3529 36.2391 63.5437 34.5002 64.7196C32.2187 61.3795 29.8958 58.0692 27.5681 54.87C29.7988 51.7827 32.033 48.6107 34.2117 45.453ZM30.8899 43.334C29.1361 46.3477 27.3316 49.2726 25.5154 52.0807C21.0098 46.0275 16.53 40.4822 12.3483 36.0321C18.909 37.0346 25.3067 39.9567 30.8899 43.334Z" fill="#797979"/>
<mask id="mask0_248_113" style="mask-type:luminance" maskUnits="userSpaceOnUse" x="38" y="34" width="20" height="42">
<path d="M48.0275 75.376C48.0275 75.376 38.2797 66.2764 38.2797 55.064C38.2797 43.8515 48.0275 34.752 48.0275 34.752C48.0275 34.752 57.7754 43.8515 57.7754 55.064C57.7754 66.2764 48.0275 75.376 48.0275 75.376Z" fill="white"/>
</mask>
<g mask="url(#mask0_248_113)">
<path d="M28.1465 55.0673C28.1465 66.0467 37.0471 74.9472 48.0264 74.9472C59.0057 74.9472 67.9062 66.0467 67.9062 55.0674C67.9062 44.088 59.0057 35.1875 48.0264 35.1875C37.0471 35.1875 28.1465 44.088 28.1465 55.0673Z" stroke="#797979" stroke-width="5.22744" stroke-miterlimit="10"/>
</g>
<path d="M47.939 45.957L49.5172 51.4869L55.0952 50.0887L51.0953 54.2203L55.0952 58.3519L49.5172 56.9537L47.939 62.4835L46.3609 56.9537L40.7828 58.3519L44.7827 54.2203L40.7828 50.0887L46.3609 51.4869L47.939 45.957Z" fill="#797979"/>
</svg>
